# xmcd CD database file
#
# Track frame offsets:
#	150
#	49327
#	71893
#	122469
#	184024
#	214078
#	258349
#
# Disc length: 4017 seconds
#
# Revision: 0
# Processed by: cddbd v1.5PL3 Copyright (c) Steve Scherf et al.
# Submitted via: CDex 1.51
#
DISCID=660faf07
DTITLE=Henry Threadgill and Make a Move - Where is your cup?
DYEAR=1997
DGENRE=Jazz
TTITLE0=100 Years old game
TTITLE1=Laughing dub
TTITLE2=Where is your cup?
TTITLE3=And this
TTITLE4=Feels like it
TTITLE5=The Fleur
TTITLE6=Go to far
EXTD=YEAR: 1997
EXTT0=
EXTT1=
EXTT2=
EXTT3=
EXTT4=
EXTT5=
EXTT6=
PLAYORDER=
